<svg xmlns="http://www.w3.org/2000/svg" xmlns:xlink="http://www.w3.org/1999/xlink" version="1.1" class="marks" width="600" height="300" viewBox="0 0 600 300"><rect width="600" height="300" fill="white"/><g fill="none" stroke-miterlimit="10" transform="translate(44,27)"><g class="mark-group role-frame root" role="graphics-object" aria-roledescription="group mark container"><g transform="translate(0,0)"><path class="background" aria-hidden="true" d="M0.5,0.5h360v251h-360Z" stroke="#ddd"/><g><g class="mark-group role-axis" aria-hidden="true"><g transform="translate(0.5,251.5)"><path class="background" aria-hidden="true" d="M0,0h0v0h0Z" pointer-events="none"/><g><g class="mark-rule role-axis-grid" pointer-events="none"><line transform="translate(0,-251)" x2="0" y2="251" stroke="#ddd" stroke-width="1" opacity="1"/><line transform="translate(36,-251)" x2="0" y2="251" stroke="#ddd" stroke-width="1" opacity="1"/><line transform="translate(72,-251)" x2="0" y2="251" stroke="#ddd" stroke-width="1" opacity="1"/><line transform="translate(108,-251)" x2="0" y2="251" stroke="#ddd" stroke-width="1" opacity="1"/><line transform="translate(144,-251)" x2="0" y2="251" stroke="#ddd" stroke-width="1" opacity="1"/><line transform="translate(180,-251)" x2="0" y2="251" stroke="#ddd" stroke-width="1" opacity="1"/><line transform="translate(216,-251)" x2="0" y2="251" stroke="#ddd" stroke-width="1" opacity="1"/><line transform="translate(252,-251)" x2="0" y2="251" stroke="#ddd" stroke-width="1" opacity="1"/><line transform="translate(288,-251)" x2="0" y2="251" stroke="#ddd" stroke-width="1" opacity="1"/><line transform="translate(324,-251)" x2="0" y2="251" stroke="#ddd" stroke-width="1" opacity="1"/><line transform="translate(360,-251)" x2="0" y2="251" stroke="#ddd" stroke-width="1" opacity="1"/></g></g><path class="foreground" aria-hidden="true" d="" pointer-events="none" display="none"/></g></g><g class="mark-group role-axis" aria-hidden="true"><g transform="translate(0.5,0.5)"><path class="background" aria-hidden="true" d="M0,0h0v0h0Z" pointer-events="none"/><g><g class="mark-rule role-axis-grid" pointer-events="none"><line transform="translate(0,251)" x2="360" y2="0" stroke="#ddd" stroke-width="1" opacity="1"/><line transform="translate(0,205)" x2="360" y2="0" stroke="#ddd" stroke-width="1" opacity="1"/><line transform="translate(0,160)" x2="360" y2="0" stroke="#ddd" stroke-width="1" opacity="1"/><line transform="translate(0,114)" x2="360" y2="0" stroke="#ddd" stroke-width="1" opacity="1"/><line transform="translate(0,68)" x2="360" y2="0" stroke="#ddd" stroke-width="1" opacity="1"/><line transform="translate(0,23)" x2="360" y2="0" stroke="#ddd" stroke-width="1" opacity="1"/></g></g><path class="foreground" aria-hidden="true" d="" pointer-events="none" display="none"/></g></g><g class="mark-group role-axis" role="graphics-symbol" aria-roledescription="axis" aria-label="X-axis for a linear scale with values from 0 to 200"><g transform="translate(0.5,251.5)"><path class="background" aria-hidden="true" d="M0,0h0v0h0Z" pointer-events="none"/><g><g class="mark-rule role-axis-tick" pointer-events="none"><line transform="translate(0,0)" x2="0" y2="5" stroke="#888" stroke-width="1" opacity="1"/><line transform="translate(36,0)" x2="0" y2="5" stroke="#888" stroke-width="1" opacity="1"/><line transform="translate(72,0)" x2="0" y2="5" stroke="#888" stroke-width="1" opacity="1"/><line transform="translate(108,0)" x2="0" y2="5" stroke="#888" stroke-width="1" opacity="1"/><line transform="translate(144,0)" x2="0" y2="5" stroke="#888" stroke-width="1" opacity="1"/><line transform="translate(180,0)" x2="0" y2="5" stroke="#888" stroke-width="1" opacity="1"/><line transform="translate(216,0)" x2="0" y2="5" stroke="#888" stroke-width="1" opacity="1"/><line transform="translate(252,0)" x2="0" y2="5" stroke="#888" stroke-width="1" opacity="1"/><line transform="translate(288,0)" x2="0" y2="5" stroke="#888" stroke-width="1" opacity="1"/><line transform="translate(324,0)" x2="0" y2="5" stroke="#888" stroke-width="1" opacity="1"/><line transform="translate(360,0)" x2="0" y2="5" stroke="#888" stroke-width="1" opacity="1"/></g><g class="mark-text role-axis-label" pointer-events="none"><text text-anchor="start" transform="translate(0,15)" font-family="sans-serif" font-size="10px" fill="#000" opacity="1">0</text><text text-anchor="middle" transform="translate(36,15)" font-family="sans-serif" font-size="10px" fill="#000" opacity="1">20</text><text text-anchor="middle" transform="translate(72,15)" font-family="sans-serif" font-size="10px" fill="#000" opacity="1">40</text><text text-anchor="middle" transform="translate(108,15)" font-family="sans-serif" font-size="10px" fill="#000" opacity="1">60</text><text text-anchor="middle" transform="translate(144,15)" font-family="sans-serif" font-size="10px" fill="#000" opacity="1">80</text><text text-anchor="middle" transform="translate(180,15)" font-family="sans-serif" font-size="10px" fill="#000" opacity="1">100</text><text text-anchor="middle" transform="translate(216,15)" font-family="sans-serif" font-size="10px" fill="#000" opacity="1">120</text><text text-anchor="middle" transform="translate(251.99999999999997,15)" font-family="sans-serif" font-size="10px" fill="#000" opacity="1">140</text><text text-anchor="middle" transform="translate(288,15)" font-family="sans-serif" font-size="10px" fill="#000" opacity="1">160</text><text text-anchor="middle" transform="translate(324,15)" font-family="sans-serif" font-size="10px" fill="#000" opacity="1">180</text><text text-anchor="end" transform="translate(360,15)" font-family="sans-serif" font-size="10px" fill="#000" opacity="1">200</text></g><g class="mark-rule role-axis-domain" pointer-events="none"><line transform="translate(0,0)" x2="360" y2="0" stroke="#888" stroke-width="1" opacity="1"/></g></g><path class="foreground" aria-hidden="true" d="" pointer-events="none" display="none"/></g></g><g class="mark-group role-axis" role="graphics-symbol" aria-roledescription="axis" aria-label="Y-axis titled 'y' for a linear scale with values from 0 to 110"><g transform="translate(0.5,0.5)"><path class="background" aria-hidden="true" d="M0,0h0v0h0Z" pointer-events="none"/><g><g class="mark-rule role-axis-tick" pointer-events="none"><line transform="translate(0,251)" x2="-5" y2="0" stroke="#888" stroke-width="1" opacity="1"/><line transform="translate(0,205)" x2="-5" y2="0" stroke="#888" stroke-width="1" opacity="1"/><line transform="translate(0,160)" x2="-5" y2="0" stroke="#888" stroke-width="1" opacity="1"/><line transform="translate(0,114)" x2="-5" y2="0" stroke="#888" stroke-width="1" opacity="1"/><line transform="translate(0,68)" x2="-5" y2="0" stroke="#888" stroke-width="1" opacity="1"/><line transform="translate(0,23)" x2="-5" y2="0" stroke="#888" stroke-width="1" opacity="1"/></g><g class="mark-text role-axis-label" pointer-events="none"><text text-anchor="end" transform="translate(-7,254)" font-family="sans-serif" font-size="10px" fill="#000" opacity="1">0</text><text text-anchor="end" transform="translate(-7,208.36363636363635)" font-family="sans-serif" font-size="10px" fill="#000" opacity="1">20</text><text text-anchor="end" transform="translate(-7,162.72727272727272)" font-family="sans-serif" font-size="10px" fill="#000" opacity="1">40</text><text text-anchor="end" transform="translate(-7,117.09090909090911)" font-family="sans-serif" font-size="10px" fill="#000" opacity="1">60</text><text text-anchor="end" transform="translate(-7,71.45454545454545)" font-family="sans-serif" font-size="10px" fill="#000" opacity="1">80</text><text text-anchor="end" transform="translate(-7,25.818181818181827)" font-family="sans-serif" font-size="10px" fill="#000" opacity="1">100</text></g><g class="mark-rule role-axis-domain" pointer-events="none"><line transform="translate(0,251)" x2="0" y2="-251" stroke="#888" stroke-width="1" opacity="1"/></g><g class="mark-text role-axis-title" pointer-events="none"><text text-anchor="middle" transform="translate(-27.6845703125,125.5) rotate(-90) translate(0,-2)" font-family="sans-serif" font-size="11px" font-weight="bold" fill="#000" opacity="1">y</text></g></g><path class="foreground" aria-hidden="true" d="" pointer-events="none" display="none"/></g></g><g class="mark-group role-scope layer_0_pathgroup" role="graphics-object" aria-roledescription="group mark container"><g transform="translate(0,0)"><path class="background" aria-hidden="true" d="M0,0h360v251h-360Z"/><g><g class="mark-line role-mark layer_0_marks" role="graphics-object" aria-roledescription="line mark container"><path aria-label="step: 0; y: 11; name: marigold_clone_200ep_10trn_1000_expert_runs; lineKey: 200 Epochs Avg Clone Costs" role="graphics-symbol" aria-roledescription="line mark" d="M0,225.9L9,201.25636363636363L18,181.63272727272727L27,228.6381818181818L36,194.4109090909091L45,128.23818181818183L54,55.67636363636366L62.99999999999999,133.71454545454546L72,130.06363636363636L81,140.10363636363635L90,158.81454545454548L99.00000000000001,135.9963636363636L108,200.8L117,88.99090909090908L125.99999999999999,137.36545454545455L135,115.91636363636363L144,187.56545454545454L153,161.55272727272725L162,113.17818181818183L171,144.2109090909091L180,208.10181818181817L189,131.43272727272728L198.00000000000003,103.13818181818182L206.99999999999997,153.33818181818182L216,152.42545454545453L225,78.95090909090906L234,167.9418181818182L243.00000000000003,126.41272727272728L251.99999999999997,161.09636363636363L261,121.84909090909092L270,187.56545454545454L279,157.9018181818182L288,172.0490909090909L297,90.81636363636363L306,189.39090909090908L315,61.60909090909092L324,176.15636363636366L333,197.1490909090909L342,151.9690909090909L351,146.9490909090909" stroke="rgb(160, 199, 92)" stroke-width="2" stroke-dasharray="1,0"/></g></g><path class="foreground" aria-hidden="true" d="" display="none"/></g><g transform="translate(0,0)"><path class="background" aria-hidden="true" d="M0,0h360v251h-360Z"/><g><g class="mark-line role-mark layer_0_marks" role="graphics-object" aria-roledescription="line mark container"><path aria-label="step: 0; y: 46.8; name: marigold_clone_200ep_10trn_1000_expert_runs; lineKey: 200 Epochs Avg Expert Costs" role="graphics-symbol" aria-roledescription="line mark" d="M0,144.2109090909091L9,144.2109090909091L18,144.2109090909091L27,144.2109090909091L36,144.2109090909091L45,144.2109090909091L54,144.2109090909091L62.99999999999999,144.2109090909091L72,144.2109090909091L81,144.2109090909091L90,144.2109090909091L99.00000000000001,144.2109090909091L108,144.2109090909091L117,144.2109090909091L125.99999999999999,144.2109090909091L135,144.2109090909091L144,144.2109090909091L153,144.2109090909091L162,144.2109090909091L171,144.2109090909091L180,144.2109090909091L189,144.2109090909091L198.00000000000003,144.2109090909091L206.99999999999997,144.2109090909091L216,144.2109090909091L225,144.2109090909091L234,144.2109090909091L243.00000000000003,144.2109090909091L251.99999999999997,144.2109090909091L261,144.2109090909091L270,144.2109090909091L279,144.2109090909091L288,144.2109090909091L297,144.2109090909091L306,144.2109090909091L315,144.2109090909091L324,144.2109090909091L333,144.2109090909091L342,144.2109090909091L351,144.2109090909091" stroke="rgb(160, 199, 92)" stroke-width="2" stroke-dasharray="4,2"/></g></g><path class="foreground" aria-hidden="true" d="" display="none"/></g><g transform="translate(0,0)"><path class="background" aria-hidden="true" d="M0,0h360v251h-360Z"/><g><g class="mark-line role-mark layer_0_marks" role="graphics-object" aria-roledescription="line mark container"><path aria-label="step: 0; y: 5; name: marigold_clone_200ep_25trn_1000_expert_runs; lineKey: 200 Epochs Avg Clone Costs" role="graphics-symbol" aria-roledescription="line mark" d="M0,239.5909090909091L9,224.07454545454544L18,180.26363636363638L27,177.0690909090909L36,112.26545454545455L45,141.01636363636362L54,166.11636363636364L62.99999999999999,124.13090909090909L72,127.78181818181817L81,135.54000000000002L90,141.92909090909092L99.00000000000001,138.73454545454547L108,163.37818181818182L117,200.8L125.99999999999999,104.50727272727273L135,125.04363636363637L144,160.18363636363637L153,172.0490909090909L162,1.8254545454545292L171,140.10363636363635L180,44.26727272727273L189,129.15090909090912L198.00000000000003,136.45272727272726L206.99999999999997,193.04181818181817L216,203.0818181818182L225,198.5181818181818L234,97.66181818181818L243.00000000000003,149.23090909090908L251.99999999999997,143.75454545454545L261,155.16363636363636L270,109.52727272727273L279,138.27818181818182L288,109.52727272727273L297,196.23636363636365L306,194.4109090909091L315,195.78L324,142.38545454545454L333,131.8890909090909L342,189.84727272727272L351,141.92909090909092" stroke="rgb(240, 184, 153)" stroke-width="2" stroke-dasharray="1,0"/></g></g><path class="foreground" aria-hidden="true" d="" display="none"/></g><g transform="translate(0,0)"><path class="background" aria-hidden="true" d="M0,0h360v251h-360Z"/><g><g class="mark-line role-mark layer_0_marks" role="graphics-object" aria-roledescription="line mark container"><path aria-label="step: 0; y: 44.96; name: marigold_clone_200ep_25trn_1000_expert_runs; lineKey: 200 Epochs Avg Expert Costs" role="graphics-symbol" aria-roledescription="line mark" d="M0,148.40945454545454L9,148.40945454545454L18,148.40945454545454L27,148.40945454545454L36,148.40945454545454L45,148.40945454545454L54,148.40945454545454L62.99999999999999,148.40945454545454L72,148.40945454545454L81,148.40945454545454L90,148.40945454545454L99.00000000000001,148.40945454545454L108,148.40945454545454L117,148.40945454545454L125.99999999999999,148.40945454545454L135,148.40945454545454L144,148.40945454545454L153,148.40945454545454L162,148.40945454545454L171,148.40945454545454L180,148.40945454545454L189,148.40945454545454L198.00000000000003,148.40945454545454L206.99999999999997,148.40945454545454L216,148.40945454545454L225,148.40945454545454L234,148.40945454545454L243.00000000000003,148.40945454545454L251.99999999999997,148.40945454545454L261,148.40945454545454L270,148.40945454545454L279,148.40945454545454L288,148.40945454545454L297,148.40945454545454L306,148.40945454545454L315,148.40945454545454L324,148.40945454545454L333,148.40945454545454L342,148.40945454545454L351,148.40945454545454" stroke="rgb(240, 184, 153)" stroke-width="2" stroke-dasharray="4,2"/></g></g><path class="foreground" aria-hidden="true" d="" display="none"/></g><g transform="translate(0,0)"><path class="background" aria-hidden="true" d="M0,0h360v251h-360Z"/><g><g class="mark-line role-mark layer_0_marks" role="graphics-object" aria-roledescription="line mark container"><path aria-label="step: 0; y: 52.2; name: marigold_clone_200ep_50trn_1000_expert_runs; lineKey: 200 Epochs Avg Clone Costs" role="graphics-symbol" aria-roledescription="line mark" d="M0,131.8890909090909L9,138.27818181818182L18,136.9090909090909L27,121.84909090909092L36,107.70181818181818L45,154.2509090909091L54,145.12363636363636L62.99999999999999,182.0890909090909L72,186.65272727272728L81,152.42545454545453L90,159.72727272727272L99.00000000000001,115.46L108,138.73454545454547L117,92.18545454545455L125.99999999999999,99.03090909090912L135,134.62727272727273L144,142.84181818181818L153,193.95454545454544L162,149.23090909090908L171,125.5L180,168.85454545454544L189,138.27818181818182L198.00000000000003,197.1490909090909L206.99999999999997,108.15818181818182L216,151.9690909090909L225,201.25636363636363L234,183.00181818181815L243.00000000000003,141.01636363636362L251.99999999999997,130.97636363636363L261,205.36363636363635L270,158.81454545454548L279,165.66L288,141.92909090909092L297,110.89636363636363L306,121.39272727272727L315,199.4309090909091L324,160.64000000000001L333,137.36545454545455L342,185.28363636363636L351,149.23090909090908" stroke="rgb(34, 148, 135)" stroke-width="2" stroke-dasharray="1,0"/></g></g><path class="foreground" aria-hidden="true" d="" display="none"/></g><g transform="translate(0,0)"><path class="background" aria-hidden="true" d="M0,0h360v251h-360Z"/><g><g class="mark-line role-mark layer_0_marks" role="graphics-object" aria-roledescription="line mark container"><path aria-label="step: 0; y: 43.24; name: marigold_clone_200ep_50trn_1000_expert_runs; lineKey: 200 Epochs Avg Expert Costs" role="graphics-symbol" aria-roledescription="line mark" d="M0,152.3341818181818L9,152.3341818181818L18,152.3341818181818L27,152.3341818181818L36,152.3341818181818L45,152.3341818181818L54,152.3341818181818L62.99999999999999,152.3341818181818L72,152.3341818181818L81,152.3341818181818L90,152.3341818181818L99.00000000000001,152.3341818181818L108,152.3341818181818L117,152.3341818181818L125.99999999999999,152.3341818181818L135,152.3341818181818L144,152.3341818181818L153,152.3341818181818L162,152.3341818181818L171,152.3341818181818L180,152.3341818181818L189,152.3341818181818L198.00000000000003,152.3341818181818L206.99999999999997,152.3341818181818L216,152.3341818181818L225,152.3341818181818L234,152.3341818181818L243.00000000000003,152.3341818181818L251.99999999999997,152.3341818181818L261,152.3341818181818L270,152.3341818181818L279,152.3341818181818L288,152.3341818181818L297,152.3341818181818L306,152.3341818181818L315,152.3341818181818L324,152.3341818181818L333,152.3341818181818L342,152.3341818181818L351,152.3341818181818" stroke="rgb(34, 148, 135)" stroke-width="2" stroke-dasharray="4,2"/></g></g><path class="foreground" aria-hidden="true" d="" display="none"/></g><g transform="translate(0,0)"><path class="background" aria-hidden="true" d="M0,0h360v251h-360Z"/><g><g class="mark-line role-mark layer_0_marks" role="graphics-object" aria-roledescription="line mark container"><path aria-label="step: 0; y: 80.4; name: marigold_clone_200ep_75trn_1000_expert_runs; lineKey: 200 Epochs Avg Clone Costs" role="graphics-symbol" aria-roledescription="line mark" d="M0,67.54181818181817L9,162.46545454545452L18,146.03636363636363L27,113.63454545454546L36,149.68727272727276L45,176.61272727272726L54,205.36363636363635L62.99999999999999,87.62181818181818L72,168.39818181818183L81,160.64000000000001L90,187.10909090909092L99.00000000000001,173.4181818181818L108,205.82000000000002L117,109.0709090909091L125.99999999999999,153.79454545454547L135,121.84909090909092L144,153.79454545454547L153,121.39272727272727L162,135.54000000000002L171,125.5L180,129.60727272727271L189,195.32363636363635L198.00000000000003,169.7672727272727L206.99999999999997,189.84727272727272L216,193.04181818181817L225,126.41272727272728L234,88.0781818181818L243.00000000000003,181.17636363636365L251.99999999999997,130.52L261,81.23272727272726L270,189.84727272727272L279,129.60727272727271L288,155.16363636363636L297,182.0890909090909L306,57.95818181818183L315,99.94363636363637L324,151.51272727272726L333,185.74L342,168.85454545454544L351,137.36545454545455" stroke="rgb(91, 197, 219)" stroke-width="2" stroke-dasharray="1,0"/></g></g><path class="foreground" aria-hidden="true" d="" display="none"/></g><g transform="translate(0,0)"><path class="background" aria-hidden="true" d="M0,0h360v251h-360Z"/><g><g class="mark-line role-mark layer_0_marks" role="graphics-object" aria-roledescription="line mark container"><path aria-label="step: 0; y: 50.36; name: marigold_clone_200ep_75trn_1000_expert_runs; lineKey: 200 Epochs Avg Expert Costs" role="graphics-symbol" aria-roledescription="line mark" d="M0,136.08763636363636L9,136.08763636363636L18,136.08763636363636L27,136.08763636363636L36,136.08763636363636L45,136.08763636363636L54,136.08763636363636L62.99999999999999,136.08763636363636L72,136.08763636363636L81,136.08763636363636L90,136.08763636363636L99.00000000000001,136.08763636363636L108,136.08763636363636L117,136.08763636363636L125.99999999999999,136.08763636363636L135,136.08763636363636L144,136.08763636363636L153,136.08763636363636L162,136.08763636363636L171,136.08763636363636L180,136.08763636363636L189,136.08763636363636L198.00000000000003,136.08763636363636L206.99999999999997,136.08763636363636L216,136.08763636363636L225,136.08763636363636L234,136.08763636363636L243.00000000000003,136.08763636363636L251.99999999999997,136.08763636363636L261,136.08763636363636L270,136.08763636363636L279,136.08763636363636L288,136.08763636363636L297,136.08763636363636L306,136.08763636363636L315,136.08763636363636L324,136.08763636363636L333,136.08763636363636L342,136.08763636363636L351,136.08763636363636" stroke="rgb(91, 197, 219)" stroke-width="2" stroke-dasharray="4,2"/></g></g><path class="foreground" aria-hidden="true" d="" display="none"/></g><g transform="translate(0,0)"><path class="background" aria-hidden="true" d="M0,0h360v251h-360Z"/><g><g class="mark-line role-mark layer_0_marks" role="graphics-object" aria-roledescription="line mark container"><path aria-label="step: 0; y: 59; name: marigold_clone_200ep_100trn_1000_expert_runs; lineKey: 200 Epochs Avg Clone Costs" role="graphics-symbol" aria-roledescription="line mark" d="M0,116.37272727272727L9,112.72181818181818L18,125.5L27,142.38545454545454L36,148.77454545454546L45,209.4709090909091L54,81.23272727272726L62.99999999999999,114.54727272727274L72,107.24545454545454L81,134.17090909090908L90,124.58727272727272L99.00000000000001,147.40545454545455L108,102.68181818181817L117,198.06181818181818L125.99999999999999,167.48545454545453L135,162.46545454545452L144,73.47454545454545L153,173.4181818181818L162,163.83454545454546L171,93.55454545454545L180,145.12363636363636L189,139.1909090909091L198.00000000000003,113.63454545454546L206.99999999999997,104.05090909090906L216,209.92727272727274L225,151.05636363636364L234,180.72L243.00000000000003,190.30363636363637L251.99999999999997,129.15090909090912L261,199.4309090909091L270,116.82909090909091L279,160.18363636363637L288,161.55272727272725L297,135.9963636363636L306,143.2981818181818L315,103.13818181818182L324,138.27818181818182L333,158.81454545454548L342,155.16363636363636L351,173.4181818181818" stroke="rgb(237, 183, 50)" stroke-width="2" stroke-dasharray="1,0"/></g></g><path class="foreground" aria-hidden="true" d="" display="none"/></g><g transform="translate(0,0)"><path class="background" aria-hidden="true" d="M0,0h360v251h-360Z"/><g><g class="mark-line role-mark layer_0_marks" role="graphics-object" aria-roledescription="line mark container"><path aria-label="step: 0; y: 46.72; name: marigold_clone_200ep_100trn_1000_expert_runs; lineKey: 200 Epochs Avg Expert Costs" role="graphics-symbol" aria-roledescription="line mark" d="M0,144.39345454545455L9,144.39345454545455L18,144.39345454545455L27,144.39345454545455L36,144.39345454545455L45,144.39345454545455L54,144.39345454545455L62.99999999999999,144.39345454545455L72,144.39345454545455L81,144.39345454545455L90,144.39345454545455L99.00000000000001,144.39345454545455L108,144.39345454545455L117,144.39345454545455L125.99999999999999,144.39345454545455L135,144.39345454545455L144,144.39345454545455L153,144.39345454545455L162,144.39345454545455L171,144.39345454545455L180,144.39345454545455L189,144.39345454545455L198.00000000000003,144.39345454545455L206.99999999999997,144.39345454545455L216,144.39345454545455L225,144.39345454545455L234,144.39345454545455L243.00000000000003,144.39345454545455L251.99999999999997,144.39345454545455L261,144.39345454545455L270,144.39345454545455L279,144.39345454545455L288,144.39345454545455L297,144.39345454545455L306,144.39345454545455L315,144.39345454545455L324,144.39345454545455L333,144.39345454545455L342,144.39345454545455L351,144.39345454545455" stroke="rgb(237, 183, 50)" stroke-width="2" stroke-dasharray="4,2"/></g></g><path class="foreground" aria-hidden="true" d="" display="none"/></g><g transform="translate(0,0)"><path class="background" aria-hidden="true" d="M0,0h360v251h-360Z"/><g><g class="mark-line role-mark layer_0_marks" role="graphics-object" aria-roledescription="line mark container"><path aria-label="step: 0; y: 66.2; name: marigold_clone_50ep_100trn_1000_expert_runs; lineKey: 50 Epochs Avg Clone Costs" role="graphics-symbol" aria-roledescription="line mark" d="M0,99.94363636363637L9,151.9690909090909L18,177.52545454545455L27,147.40545454545455L36,147.8618181818182L45,168.39818181818183L54,160.64000000000001L62.99999999999999,122.30545454545455L72,101.76909090909089L81,171.13636363636365" stroke="rgb(237, 183, 50)" stroke-width="2" stroke-dasharray="2,1"/></g></g><path class="foreground" aria-hidden="true" d="" display="none"/></g><g transform="translate(0,0)"><path class="background" aria-hidden="true" d="M0,0h360v251h-360Z"/><g><g class="mark-line role-mark layer_0_marks" role="graphics-object" aria-roledescription="line mark container"><path aria-label="step: 0; y: 40.4; name: marigold_clone_50ep_100trn_1000_expert_runs; lineKey: 50 Epochs Avg Expert Costs" role="graphics-symbol" aria-roledescription="line mark" d="M0,158.81454545454548L9,158.81454545454548L18,158.81454545454548L27,158.81454545454548L36,158.81454545454548L45,158.81454545454548L54,158.81454545454548L62.99999999999999,158.81454545454548L72,158.81454545454548L81,158.81454545454548" stroke="rgb(237, 183, 50)" stroke-width="2" stroke-dasharray="1,1"/></g></g><path class="foreground" aria-hidden="true" d="" display="none"/></g></g><g class="mark-group role-legend" role="graphics-symbol" aria-roledescription="legend" aria-label="Symbol legend titled 'name' for stroke color with 6 values: marigold_clone_200ep_100trn_1000_expert_runs, marigold_clone_200ep_10trn_1000_expert_runs, marigold_clone_200ep_25trn_1000_expert_runs, marigold_clone_200ep_50trn_1000_expert_runs, marigold_clone_200ep_75trn_1000_expert_runs, marigold_clone_50ep_100trn_1000_expert_runs"><g transform="translate(378,0)"><path class="background" aria-hidden="true" d="M0,0h173v92h-173Z" pointer-events="none"/><g><g class="mark-group role-legend-entry"><g transform="translate(0,16)"><path class="background" aria-hidden="true" d="M0,0h0v0h0Z" pointer-events="none"/><g><g class="mark-group role-scope" role="graphics-object" aria-roledescription="group mark container"><g transform="translate(0,0)"><path class="background" aria-hidden="true" d="M0,0h172.2255859375v11h-172.2255859375Z" pointer-events="none" opacity="1"/><g><g class="mark-symbol role-legend-symbol" pointer-events="none"><path transform="translate(6,6)" d="M-5,0L5,0" stroke="rgb(237, 183, 50)" stroke-width="1.5" opacity="1"/></g><g class="mark-text role-legend-label" pointer-events="none"><text text-anchor="start" transform="translate(16,9)" font-family="sans-serif" font-size="10px" fill="#000" opacity="1">marigold_clone_200ep_100trn_1…</text></g></g><path class="foreground" aria-hidden="true" d="" pointer-events="none" display="none"/></g><g transform="translate(0,13)"><path class="background" aria-hidden="true" d="M0,0h172.2255859375v11h-172.2255859375Z" pointer-events="none" opacity="1"/><g><g class="mark-symbol role-legend-symbol" pointer-events="none"><path transform="translate(6,6)" d="M-5,0L5,0" stroke="rgb(160, 199, 92)" stroke-width="1.5" opacity="1"/></g><g class="mark-text role-legend-label" pointer-events="none"><text text-anchor="start" transform="translate(16,9)" font-family="sans-serif" font-size="10px" fill="#000" opacity="1">marigold_clone_200ep_10trn_10…</text></g></g><path class="foreground" aria-hidden="true" d="" pointer-events="none" display="none"/></g><g transform="translate(0,26)"><path class="background" aria-hidden="true" d="M0,0h172.2255859375v11h-172.2255859375Z" pointer-events="none" opacity="1"/><g><g class="mark-symbol role-legend-symbol" pointer-events="none"><path transform="translate(6,6)" d="M-5,0L5,0" stroke="rgb(240, 184, 153)" stroke-width="1.5" opacity="1"/></g><g class="mark-text role-legend-label" pointer-events="none"><text text-anchor="start" transform="translate(16,9)" font-family="sans-serif" font-size="10px" fill="#000" opacity="1">marigold_clone_200ep_25trn_10…</text></g></g><path class="foreground" aria-hidden="true" d="" pointer-events="none" display="none"/></g><g transform="translate(0,39)"><path class="background" aria-hidden="true" d="M0,0h172.2255859375v11h-172.2255859375Z" pointer-events="none" opacity="1"/><g><g class="mark-symbol role-legend-symbol" pointer-events="none"><path transform="translate(6,6)" d="M-5,0L5,0" stroke="rgb(34, 148, 135)" stroke-width="1.5" opacity="1"/></g><g class="mark-text role-legend-label" pointer-events="none"><text text-anchor="start" transform="translate(16,9)" font-family="sans-serif" font-size="10px" fill="#000" opacity="1">marigold_clone_200ep_50trn_10…</text></g></g><path class="foreground" aria-hidden="true" d="" pointer-events="none" display="none"/></g><g transform="translate(0,52)"><path class="background" aria-hidden="true" d="M0,0h172.2255859375v11h-172.2255859375Z" pointer-events="none" opacity="1"/><g><g class="mark-symbol role-legend-symbol" pointer-events="none"><path transform="translate(6,6)" d="M-5,0L5,0" stroke="rgb(91, 197, 219)" stroke-width="1.5" opacity="1"/></g><g class="mark-text role-legend-label" pointer-events="none"><text text-anchor="start" transform="translate(16,9)" font-family="sans-serif" font-size="10px" fill="#000" opacity="1">marigold_clone_200ep_75trn_10…</text></g></g><path class="foreground" aria-hidden="true" d="" pointer-events="none" display="none"/></g><g transform="translate(0,65)"><path class="background" aria-hidden="true" d="M0,0h172.2255859375v11h-172.2255859375Z" pointer-events="none" opacity="1"/><g><g class="mark-symbol role-legend-symbol" pointer-events="none"><path transform="translate(6,6)" d="M-5,0L5,0" stroke="rgb(237, 183, 50)" stroke-width="1.5" opacity="1"/></g><g class="mark-text role-legend-label" pointer-events="none"><text text-anchor="start" transform="translate(16,9)" font-family="sans-serif" font-size="10px" fill="#000" opacity="1">marigold_clone_50ep_100trn_10…</text></g></g><path class="foreground" aria-hidden="true" d="" pointer-events="none" display="none"/></g></g></g><path class="foreground" aria-hidden="true" d="" pointer-events="none" display="none"/></g></g><g class="mark-text role-legend-title" pointer-events="none"><text text-anchor="start" transform="translate(0,9)" font-family="sans-serif" font-size="11px" font-weight="bold" fill="#000" opacity="1">name</text></g></g><path class="foreground" aria-hidden="true" d="" pointer-events="none" display="none"/></g></g><g class="mark-group role-legend" role="graphics-symbol" aria-roledescription="legend" aria-label="Symbol legend titled 'lineKey' for strokeDash with 4 values: 200 Epochs Avg Clone Costs, 200 Epochs Avg Expert Costs, 50 Epochs Avg Clone Costs, 50 Epochs Avg Expert Costs"><g transform="translate(378,100)"><path class="background" aria-hidden="true" d="M0,0h149v66h-149Z" pointer-events="none"/><g><g class="mark-group role-legend-entry"><g transform="translate(0,16)"><path class="background" aria-hidden="true" d="M0,0h0v0h0Z" pointer-events="none"/><g><g class="mark-group role-scope" role="graphics-object" aria-roledescription="group mark container"><g transform="translate(0,0)"><path class="background" aria-hidden="true" d="M0,0h148.666015625v11h-148.666015625Z" pointer-events="none" opacity="1"/><g><g class="mark-symbol role-legend-symbol" pointer-events="none"><path transform="translate(6,6)" d="M-5,0L5,0" stroke="#888" stroke-width="1.5" stroke-dasharray="1,0" opacity="1"/></g><g class="mark-text role-legend-label" pointer-events="none"><text text-anchor="start" transform="translate(16,9)" font-family="sans-serif" font-size="10px" fill="#000" opacity="1">200 Epochs Avg Clone Costs</text></g></g><path class="foreground" aria-hidden="true" d="" pointer-events="none" display="none"/></g><g transform="translate(0,13)"><path class="background" aria-hidden="true" d="M0,0h148.666015625v11h-148.666015625Z" pointer-events="none" opacity="1"/><g><g class="mark-symbol role-legend-symbol" pointer-events="none"><path transform="translate(6,6)" d="M-5,0L5,0" stroke="#888" stroke-width="1.5" stroke-dasharray="4,2" opacity="1"/></g><g class="mark-text role-legend-label" pointer-events="none"><text text-anchor="start" transform="translate(16,9)" font-family="sans-serif" font-size="10px" fill="#000" opacity="1">200 Epochs Avg Expert Costs</text></g></g><path class="foreground" aria-hidden="true" d="" pointer-events="none" display="none"/></g><g transform="translate(0,26)"><path class="background" aria-hidden="true" d="M0,0h148.666015625v11h-148.666015625Z" pointer-events="none" opacity="1"/><g><g class="mark-symbol role-legend-symbol" pointer-events="none"><path transform="translate(6,6)" d="M-5,0L5,0" stroke="#888" stroke-width="1.5" stroke-dasharray="2,1" opacity="1"/></g><g class="mark-text role-legend-label" pointer-events="none"><text text-anchor="start" transform="translate(16,9)" font-family="sans-serif" font-size="10px" fill="#000" opacity="1">50 Epochs Avg Clone Costs</text></g></g><path class="foreground" aria-hidden="true" d="" pointer-events="none" display="none"/></g><g transform="translate(0,39)"><path class="background" aria-hidden="true" d="M0,0h148.666015625v11h-148.666015625Z" pointer-events="none" opacity="1"/><g><g class="mark-symbol role-legend-symbol" pointer-events="none"><path transform="translate(6,6)" d="M-5,0L5,0" stroke="#888" stroke-width="1.5" stroke-dasharray="1,1" opacity="1"/></g><g class="mark-text role-legend-label" pointer-events="none"><text text-anchor="start" transform="translate(16,9)" font-family="sans-serif" font-size="10px" fill="#000" opacity="1">50 Epochs Avg Expert Costs</text></g></g><path class="foreground" aria-hidden="true" d="" pointer-events="none" display="none"/></g></g></g><path class="foreground" aria-hidden="true" d="" pointer-events="none" display="none"/></g></g><g class="mark-text role-legend-title" pointer-events="none"><text text-anchor="start" transform="translate(0,9)" font-family="sans-serif" font-size="11px" font-weight="bold" fill="#000" opacity="1">lineKey</text></g></g><path class="foreground" aria-hidden="true" d="" pointer-events="none" display="none"/></g></g><g class="mark-group role-title"><g transform="translate(180,-17.17454545454547)"><path class="background" aria-hidden="true" d="M0,0h0v0h0Z" pointer-events="none"/><g><g class="mark-text role-title-text" role="graphics-symbol" aria-roledescription="title" aria-label="Title text 'Clone Costs while Training (200 Epochs)'" pointer-events="none"><text text-anchor="middle" transform="translate(0,10)" font-family="sans-serif" font-size="13px" font-weight="bold" fill="#000" opacity="1">Clone Costs while Training (200 Epochs)</text></g></g><path class="foreground" aria-hidden="true" d="" pointer-events="none" display="none"/></g></g></g><path class="foreground" aria-hidden="true" d="" display="none"/></g></g></g></svg>