<svg xmlns="http://www.w3.org/2000/svg" xmlns:xlink="http://www.w3.org/1999/xlink" version="1.1" class="marks" width="600" height="300" viewBox="0 0 600 300"><rect width="600" height="300" fill="white"/><g fill="none" stroke-miterlimit="10" transform="translate(44,27)"><g class="mark-group role-frame root" role="graphics-object" aria-roledescription="group mark container"><g transform="translate(0,0)"><path class="background" aria-hidden="true" d="M0.5,0.5h360v251h-360Z" stroke="#ddd"/><g><g class="mark-group role-axis" aria-hidden="true"><g transform="translate(0.5,251.5)"><path class="background" aria-hidden="true" d="M0,0h0v0h0Z" pointer-events="none"/><g><g class="mark-rule role-axis-grid" pointer-events="none"><line transform="translate(0,-251)" x2="0" y2="251" stroke="#ddd" stroke-width="1" opacity="1"/><line transform="translate(36,-251)" x2="0" y2="251" stroke="#ddd" stroke-width="1" opacity="1"/><line transform="translate(72,-251)" x2="0" y2="251" stroke="#ddd" stroke-width="1" opacity="1"/><line transform="translate(108,-251)" x2="0" y2="251" stroke="#ddd" stroke-width="1" opacity="1"/><line transform="translate(144,-251)" x2="0" y2="251" stroke="#ddd" stroke-width="1" opacity="1"/><line transform="translate(180,-251)" x2="0" y2="251" stroke="#ddd" stroke-width="1" opacity="1"/><line transform="translate(216,-251)" x2="0" y2="251" stroke="#ddd" stroke-width="1" opacity="1"/><line transform="translate(252,-251)" x2="0" y2="251" stroke="#ddd" stroke-width="1" opacity="1"/><line transform="translate(288,-251)" x2="0" y2="251" stroke="#ddd" stroke-width="1" opacity="1"/><line transform="translate(324,-251)" x2="0" y2="251" stroke="#ddd" stroke-width="1" opacity="1"/><line transform="translate(360,-251)" x2="0" y2="251" stroke="#ddd" stroke-width="1" opacity="1"/></g></g><path class="foreground" aria-hidden="true" d="" pointer-events="none" display="none"/></g></g><g class="mark-group role-axis" aria-hidden="true"><g transform="translate(0.5,0.5)"><path class="background" aria-hidden="true" d="M0,0h0v0h0Z" pointer-events="none"/><g><g class="mark-rule role-axis-grid" pointer-events="none"><line transform="translate(0,251)" x2="360" y2="0" stroke="#ddd" stroke-width="1" opacity="1"/><line transform="translate(0,209)" x2="360" y2="0" stroke="#ddd" stroke-width="1" opacity="1"/><line transform="translate(0,167)" x2="360" y2="0" stroke="#ddd" stroke-width="1" opacity="1"/><line transform="translate(0,126)" x2="360" y2="0" stroke="#ddd" stroke-width="1" opacity="1"/><line transform="translate(0,84)" x2="360" y2="0" stroke="#ddd" stroke-width="1" opacity="1"/><line transform="translate(0,42)" x2="360" y2="0" stroke="#ddd" stroke-width="1" opacity="1"/><line transform="translate(0,0)" x2="360" y2="0" stroke="#ddd" stroke-width="1" opacity="1"/></g></g><path class="foreground" aria-hidden="true" d="" pointer-events="none" display="none"/></g></g><g class="mark-group role-axis" role="graphics-symbol" aria-roledescription="axis" aria-label="X-axis for a linear scale with values from 0 to 200"><g transform="translate(0.5,251.5)"><path class="background" aria-hidden="true" d="M0,0h0v0h0Z" pointer-events="none"/><g><g class="mark-rule role-axis-tick" pointer-events="none"><line transform="translate(0,0)" x2="0" y2="5" stroke="#888" stroke-width="1" opacity="1"/><line transform="translate(36,0)" x2="0" y2="5" stroke="#888" stroke-width="1" opacity="1"/><line transform="translate(72,0)" x2="0" y2="5" stroke="#888" stroke-width="1" opacity="1"/><line transform="translate(108,0)" x2="0" y2="5" stroke="#888" stroke-width="1" opacity="1"/><line transform="translate(144,0)" x2="0" y2="5" stroke="#888" stroke-width="1" opacity="1"/><line transform="translate(180,0)" x2="0" y2="5" stroke="#888" stroke-width="1" opacity="1"/><line transform="translate(216,0)" x2="0" y2="5" stroke="#888" stroke-width="1" opacity="1"/><line transform="translate(252,0)" x2="0" y2="5" stroke="#888" stroke-width="1" opacity="1"/><line transform="translate(288,0)" x2="0" y2="5" stroke="#888" stroke-width="1" opacity="1"/><line transform="translate(324,0)" x2="0" y2="5" stroke="#888" stroke-width="1" opacity="1"/><line transform="translate(360,0)" x2="0" y2="5" stroke="#888" stroke-width="1" opacity="1"/></g><g class="mark-text role-axis-label" pointer-events="none"><text text-anchor="start" transform="translate(0,15)" font-family="sans-serif" font-size="10px" fill="#000" opacity="1">0</text><text text-anchor="middle" transform="translate(36,15)" font-family="sans-serif" font-size="10px" fill="#000" opacity="1">20</text><text text-anchor="middle" transform="translate(72,15)" font-family="sans-serif" font-size="10px" fill="#000" opacity="1">40</text><text text-anchor="middle" transform="translate(108,15)" font-family="sans-serif" font-size="10px" fill="#000" opacity="1">60</text><text text-anchor="middle" transform="translate(144,15)" font-family="sans-serif" font-size="10px" fill="#000" opacity="1">80</text><text text-anchor="middle" transform="translate(180,15)" font-family="sans-serif" font-size="10px" fill="#000" opacity="1">100</text><text text-anchor="middle" transform="translate(216,15)" font-family="sans-serif" font-size="10px" fill="#000" opacity="1">120</text><text text-anchor="middle" transform="translate(251.99999999999997,15)" font-family="sans-serif" font-size="10px" fill="#000" opacity="1">140</text><text text-anchor="middle" transform="translate(288,15)" font-family="sans-serif" font-size="10px" fill="#000" opacity="1">160</text><text text-anchor="middle" transform="translate(324,15)" font-family="sans-serif" font-size="10px" fill="#000" opacity="1">180</text><text text-anchor="end" transform="translate(360,15)" font-family="sans-serif" font-size="10px" fill="#000" opacity="1">200</text></g><g class="mark-rule role-axis-domain" pointer-events="none"><line transform="translate(0,0)" x2="360" y2="0" stroke="#888" stroke-width="1" opacity="1"/></g></g><path class="foreground" aria-hidden="true" d="" pointer-events="none" display="none"/></g></g><g class="mark-group role-axis" role="graphics-symbol" aria-roledescription="axis" aria-label="Y-axis titled 'y' for a linear scale with values from −30 to 30"><g transform="translate(0.5,0.5)"><path class="background" aria-hidden="true" d="M0,0h0v0h0Z" pointer-events="none"/><g><g class="mark-rule role-axis-tick" pointer-events="none"><line transform="translate(0,251)" x2="-5" y2="0" stroke="#888" stroke-width="1" opacity="1"/><line transform="translate(0,209)" x2="-5" y2="0" stroke="#888" stroke-width="1" opacity="1"/><line transform="translate(0,167)" x2="-5" y2="0" stroke="#888" stroke-width="1" opacity="1"/><line transform="translate(0,126)" x2="-5" y2="0" stroke="#888" stroke-width="1" opacity="1"/><line transform="translate(0,84)" x2="-5" y2="0" stroke="#888" stroke-width="1" opacity="1"/><line transform="translate(0,42)" x2="-5" y2="0" stroke="#888" stroke-width="1" opacity="1"/><line transform="translate(0,0)" x2="-5" y2="0" stroke="#888" stroke-width="1" opacity="1"/></g><g class="mark-text role-axis-label" pointer-events="none"><text text-anchor="end" transform="translate(-7,254)" font-family="sans-serif" font-size="10px" fill="#000" opacity="1">−30</text><text text-anchor="end" transform="translate(-7,212.16666666666669)" font-family="sans-serif" font-size="10px" fill="#000" opacity="1">−20</text><text text-anchor="end" transform="translate(-7,170.33333333333334)" font-family="sans-serif" font-size="10px" fill="#000" opacity="1">−10</text><text text-anchor="end" transform="translate(-7,128.5)" font-family="sans-serif" font-size="10px" fill="#000" opacity="1">0</text><text text-anchor="end" transform="translate(-7,86.66666666666667)" font-family="sans-serif" font-size="10px" fill="#000" opacity="1">10</text><text text-anchor="end" transform="translate(-7,44.83333333333332)" font-family="sans-serif" font-size="10px" fill="#000" opacity="1">20</text><text text-anchor="end" transform="translate(-7,3)" font-family="sans-serif" font-size="10px" fill="#000" opacity="1">30</text></g><g class="mark-rule role-axis-domain" pointer-events="none"><line transform="translate(0,251)" x2="0" y2="-251" stroke="#888" stroke-width="1" opacity="1"/></g><g class="mark-text role-axis-title" pointer-events="none"><text text-anchor="middle" transform="translate(-27.962890625,125.5) rotate(-90) translate(0,-2)" font-family="sans-serif" font-size="11px" font-weight="bold" fill="#000" opacity="1">y</text></g></g><path class="foreground" aria-hidden="true" d="" pointer-events="none" display="none"/></g></g><g class="mark-group role-scope layer_0_pathgroup" role="graphics-object" aria-roledescription="group mark container"><g transform="translate(0,0)"><path class="background" aria-hidden="true" d="M0,0h360v251h-360Z"/><g><g class="mark-line role-mark layer_0_marks" role="graphics-object" aria-roledescription="line mark container"><path aria-label="step: 0; y: −25.9273419213; name: marigold_clone_200ep_10trn_1000_expert_runs; lineKey: 200 Epochs Avg Clone Returns" role="graphics-symbol" aria-roledescription="line mark" d="M0,233.96271370424455L9,211.96122667481194L18,219.13496311728278L27,217.76878186203558L36,199.36931809173657L45,60.701259519945815L54,94.92509620480398L62.99999999999999,75.42129829843529L72,38.99066006760186L81,44.9746009702805L90,37.835541954193666L99.00000000000001,45.83228960946694L108,22.89163446696386L117,30.378408496333623L125.99999999999999,19.891739760936673L135,26.74396168941021L144,29.427781124853L153,35.15089127135536L162,25.398172800413864L171,24.779241377380195L180,22.034032998925326L189,24.76982646641695L198.00000000000003,32.09225744783793L206.99999999999997,24.56969212866236L216,24.446478572394405L225,25.607422761222686L234,19.71080217596619L243.00000000000003,34.16498553313151L251.99999999999997,23.681234700651636L261,27.93684445015051L270,22.626827301931034L279,34.88328523980167L288,22.143627203067876L297,30.27108985096968L306,21.80518688678643L315,23.234002707633575L324,22.221842029884503L333,19.971562750948543L342,23.025894115760416L351,23.994885236411818" stroke="rgb(160, 199, 92)" stroke-width="2" stroke-dasharray="1,0"/></g></g><path class="foreground" aria-hidden="true" d="" display="none"/></g><g transform="translate(0,0)"><path class="background" aria-hidden="true" d="M0,0h360v251h-360Z"/><g><g class="mark-line role-mark layer_0_marks" role="graphics-object" aria-roledescription="line mark container"><path aria-label="step: 0; y: 24.3268634156; name: marigold_clone_200ep_10trn_1000_expert_runs; lineKey: 200 Epochs Avg Expert Returns" role="graphics-symbol" aria-roledescription="line mark" d="M0,23.732621378060117L9,23.732621378060117L18,23.732621378060117L27,23.732621378060117L36,23.732621378060117L45,23.732621378060117L54,23.732621378060117L62.99999999999999,23.732621378060117L72,23.732621378060117L81,23.732621378060117L90,23.732621378060117L99.00000000000001,23.732621378060117L108,23.732621378060117L117,23.732621378060117L125.99999999999999,23.732621378060117L135,23.732621378060117L144,23.732621378060117L153,23.732621378060117L162,23.732621378060117L171,23.732621378060117L180,23.732621378060117L189,23.732621378060117L198.00000000000003,23.732621378060117L206.99999999999997,23.732621378060117L216,23.732621378060117L225,23.732621378060117L234,23.732621378060117L243.00000000000003,23.732621378060117L251.99999999999997,23.732621378060117L261,23.732621378060117L270,23.732621378060117L279,23.732621378060117L288,23.732621378060117L297,23.732621378060117L306,23.732621378060117L315,23.732621378060117L324,23.732621378060117L333,23.732621378060117L342,23.732621378060117L351,23.732621378060117" stroke="rgb(160, 199, 92)" stroke-width="2" stroke-dasharray="4,2"/></g></g><path class="foreground" aria-hidden="true" d="" display="none"/></g><g transform="translate(0,0)"><path class="background" aria-hidden="true" d="M0,0h360v251h-360Z"/><g><g class="mark-line role-mark layer_0_marks" role="graphics-object" aria-roledescription="line mark container"><path aria-label="step: 0; y: −26.5426064633; name: marigold_clone_200ep_25trn_1000_expert_runs; lineKey: 200 Epochs Avg Clone Returns" role="graphics-symbol" aria-roledescription="line mark" d="M0,236.53657037141565L9,180.40610812639045L18,74.9731101205784L27,54.20861378432495L36,18.673062068288225L45,39.67168869919908L54,24.027008551655747L62.99999999999999,18.792867247913136L72,21.74999737204704L81,23.795568995573664L90,16.424342550478475L99.00000000000001,25.195063334884015L108,30.023629762117164L117,18.951196510809332L125.99999999999999,16.574978402744808L135,25.09897373822401L144,22.324762020551233L153,23.10935322206192L162,33.54158826296659L171,21.785904822020175L180,28.040932757180315L189,30.255145960041553L198.00000000000003,18.09014131997742L206.99999999999997,21.0956172673639L216,22.51475704989621L225,19.533776827295835L234,26.873255011225233L243.00000000000003,16.495051865778848L251.99999999999997,30.041036829104296L261,24.834605469675445L270,17.945640380063605L279,17.19346206242494L288,20.019474057859863L297,23.03416145800915L306,29.870457655916855L315,25.916289524606995L324,20.694617258226625L333,28.22179037988333L342,24.97010252880607L351,20.77253315786228" stroke="rgb(240, 184, 153)" stroke-width="2" stroke-dasharray="1,0"/></g></g><path class="foreground" aria-hidden="true" d="" display="none"/></g><g transform="translate(0,0)"><path class="background" aria-hidden="true" d="M0,0h360v251h-360Z"/><g><g class="mark-line role-mark layer_0_marks" role="graphics-object" aria-roledescription="line mark container"><path aria-label="step: 0; y: 24.3734773626; name: marigold_clone_200ep_25trn_1000_expert_runs; lineKey: 200 Epochs Avg Expert Returns" role="graphics-symbol" aria-roledescription="line mark" d="M0,23.537619699745125L9,23.537619699745125L18,23.537619699745125L27,23.537619699745125L36,23.537619699745125L45,23.537619699745125L54,23.537619699745125L62.99999999999999,23.537619699745125L72,23.537619699745125L81,23.537619699745125L90,23.537619699745125L99.00000000000001,23.537619699745125L108,23.537619699745125L117,23.537619699745125L125.99999999999999,23.537619699745125L135,23.537619699745125L144,23.537619699745125L153,23.537619699745125L162,23.537619699745125L171,23.537619699745125L180,23.537619699745125L189,23.537619699745125L198.00000000000003,23.537619699745125L206.99999999999997,23.537619699745125L216,23.537619699745125L225,23.537619699745125L234,23.537619699745125L243.00000000000003,23.537619699745125L251.99999999999997,23.537619699745125L261,23.537619699745125L270,23.537619699745125L279,23.537619699745125L288,23.537619699745125L297,23.537619699745125L306,23.537619699745125L315,23.537619699745125L324,23.537619699745125L333,23.537619699745125L342,23.537619699745125L351,23.537619699745125" stroke="rgb(240, 184, 153)" stroke-width="2" stroke-dasharray="4,2"/></g></g><path class="foreground" aria-hidden="true" d="" display="none"/></g><g transform="translate(0,0)"><path class="background" aria-hidden="true" d="M0,0h360v251h-360Z"/><g><g class="mark-line role-mark layer_0_marks" role="graphics-object" aria-roledescription="line mark container"><path aria-label="step: 0; y: −12.1887448441; name: marigold_clone_200ep_50trn_1000_expert_runs; lineKey: 200 Epochs Avg Clone Returns" role="graphics-symbol" aria-roledescription="line mark" d="M0,176.4895825980099L9,42.36455927470985L18,40.41656686870742L27,17.800070948174554L36,25.77531915497449L45,22.855979174139787L54,14.549631622178048L62.99999999999999,22.365707941722324L72,21.01035227862789L81,29.222746876900093L90,20.538054479068542L99.00000000000001,21.100706140586137L108,20.08234247416932L117,24.96430737540184L125.99999999999999,41.582673834318484L135,24.508236228817637L144,21.39545397782897L153,14.499609702884817L162,21.969824450674615L171,19.70019183904093L180,19.28359884487994L189,23.48474858989067L198.00000000000003,34.98489873843598L206.99999999999997,24.811742112440857L216,18.849823897926967L225,24.4914915702769L234,28.56229670994858L243.00000000000003,38.948576956659046L251.99999999999997,21.19333357871779L261,18.735574405167462L270,31.15997141718235L279,16.019131004681462L288,19.32359617899127L297,19.902436880350052L306,31.247155811806437L315,30.80062421095906L324,25.320173080749186L333,22.6325718966698L342,17.26919951740703L351,32.891016438169686" stroke="rgb(34, 148, 135)" stroke-width="2" stroke-dasharray="1,0"/></g></g><path class="foreground" aria-hidden="true" d="" display="none"/></g><g transform="translate(0,0)"><path class="background" aria-hidden="true" d="M0,0h360v251h-360Z"/><g><g class="mark-line role-mark layer_0_marks" role="graphics-object" aria-roledescription="line mark container"><path aria-label="step: 0; y: 24.4001787787; name: marigold_clone_200ep_50trn_1000_expert_runs; lineKey: 200 Epochs Avg Expert Returns" role="graphics-symbol" aria-roledescription="line mark" d="M0,23.42591877583531L9,23.42591877583531L18,23.42591877583531L27,23.42591877583531L36,23.42591877583531L45,23.42591877583531L54,23.42591877583531L62.99999999999999,23.42591877583531L72,23.42591877583531L81,23.42591877583531L90,23.42591877583531L99.00000000000001,23.42591877583531L108,23.42591877583531L117,23.42591877583531L125.99999999999999,23.42591877583531L135,23.42591877583531L144,23.42591877583531L153,23.42591877583531L162,23.42591877583531L171,23.42591877583531L180,23.42591877583531L189,23.42591877583531L198.00000000000003,23.42591877583531L206.99999999999997,23.42591877583531L216,23.42591877583531L225,23.42591877583531L234,23.42591877583531L243.00000000000003,23.42591877583531L251.99999999999997,23.42591877583531L261,23.42591877583531L270,23.42591877583531L279,23.42591877583531L288,23.42591877583531L297,23.42591877583531L306,23.42591877583531L315,23.42591877583531L324,23.42591877583531L333,23.42591877583531L342,23.42591877583531L351,23.42591877583531" stroke="rgb(34, 148, 135)" stroke-width="2" stroke-dasharray="4,2"/></g></g><path class="foreground" aria-hidden="true" d="" display="none"/></g><g transform="translate(0,0)"><path class="background" aria-hidden="true" d="M0,0h360v251h-360Z"/><g><g class="mark-line role-mark layer_0_marks" role="graphics-object" aria-roledescription="line mark container"><path aria-label="step: 0; y: 15.7163876046; name: marigold_clone_200ep_75trn_1000_expert_runs; lineKey: 200 Epochs Avg Clone Returns" role="graphics-symbol" aria-roledescription="line mark" d="M0,59.75311185393661L9,47.3743645898247L18,25.662777440160625L27,25.5134710867209L36,20.34028982986824L45,19.177341464502106L54,16.881246164995613L62.99999999999999,25.254789599209413L72,25.539832673319843L81,21.981446443985078L90,21.55893589146846L99.00000000000001,22.564600481427895L108,17.911600393693416L117,19.896816886162405L125.99999999999999,20.740928386829616L135,31.45696274639872L144,23.108492489218648L153,33.351069173348016L162,24.84214762665069L171,22.99574258694019L180,17.244656033513728L189,20.154877697700616L198.00000000000003,16.35041387716981L206.99999999999997,21.111951587290918L216,22.733469183238913L225,20.96754689817215L234,18.63446578594133L243.00000000000003,25.062963916455438L251.99999999999997,20.278701680295363L261,25.213575706336982L270,22.41506879677883L279,24.208473306966486L288,17.813106159051756L297,20.274328398220856L306,24.319789502135592L315,19.57540997833853L324,20.724568104917818L333,20.53120592000656L342,16.557010333310718L351,19.738521205275777" stroke="rgb(91, 197, 219)" stroke-width="2" stroke-dasharray="1,0"/></g></g><path class="foreground" aria-hidden="true" d="" display="none"/></g><g transform="translate(0,0)"><path class="background" aria-hidden="true" d="M0,0h360v251h-360Z"/><g><g class="mark-line role-mark layer_0_marks" role="graphics-object" aria-roledescription="line mark container"><path aria-label="step: 0; y: 23.7968395209; name: marigold_clone_200ep_75trn_1000_expert_runs; lineKey: 200 Epochs Avg Expert Returns" role="graphics-symbol" aria-roledescription="line mark" d="M0,25.949888004412895L9,25.949888004412895L18,25.949888004412895L27,25.949888004412895L36,25.949888004412895L45,25.949888004412895L54,25.949888004412895L62.99999999999999,25.949888004412895L72,25.949888004412895L81,25.949888004412895L90,25.949888004412895L99.00000000000001,25.949888004412895L108,25.949888004412895L117,25.949888004412895L125.99999999999999,25.949888004412895L135,25.949888004412895L144,25.949888004412895L153,25.949888004412895L162,25.949888004412895L171,25.949888004412895L180,25.949888004412895L189,25.949888004412895L198.00000000000003,25.949888004412895L206.99999999999997,25.949888004412895L216,25.949888004412895L225,25.949888004412895L234,25.949888004412895L243.00000000000003,25.949888004412895L251.99999999999997,25.949888004412895L261,25.949888004412895L270,25.949888004412895L279,25.949888004412895L288,25.949888004412895L297,25.949888004412895L306,25.949888004412895L315,25.949888004412895L324,25.949888004412895L333,25.949888004412895L342,25.949888004412895L351,25.949888004412895" stroke="rgb(91, 197, 219)" stroke-width="2" stroke-dasharray="4,2"/></g></g><path class="foreground" aria-hidden="true" d="" display="none"/></g><g transform="translate(0,0)"><path class="background" aria-hidden="true" d="M0,0h360v251h-360Z"/><g><g class="mark-line role-mark layer_0_marks" role="graphics-object" aria-roledescription="line mark container"><path aria-label="step: 0; y: 22.0254526901; name: marigold_clone_200ep_100trn_1000_expert_runs; lineKey: 200 Epochs Avg Clone Returns" role="graphics-symbol" aria-roledescription="line mark" d="M0,33.36018957977894L9,20.09302254496816L18,38.07038282573617L27,27.78690451026681L36,27.060535284457348L45,23.355389244507798L54,18.967238660121083L62.99999999999999,27.156493882356006L72,27.46712005291561L81,23.04826534873273L90,18.744508712516886L99.00000000000001,23.55454028706327L108,18.660585323779046L117,25.268178068716058L125.99999999999999,21.713627263962668L135,30.540313803741522L144,27.479485850185164L153,24.868008040960977L162,22.751415774820927L171,23.86070020884261L180,19.185741695240687L189,23.149545069236495L198.00000000000003,23.182284711578834L206.99999999999997,24.381213451125536L216,15.57962907828981L225,25.011366886566123L234,25.90885944202438L243.00000000000003,23.673750272753573L251.99999999999997,20.669803663465743L261,21.987415722555113L270,45.487534254984915L279,24.40359318935018L288,29.31439546527081L297,23.84622817781768L306,22.545494412221316L315,22.901297167090995L324,19.595952180453825L333,25.751832871842222L342,16.512022040550658L351,22.561441338834047" stroke="rgb(237, 183, 50)" stroke-width="2" stroke-dasharray="1,0"/></g></g><path class="foreground" aria-hidden="true" d="" display="none"/></g><g transform="translate(0,0)"><path class="background" aria-hidden="true" d="M0,0h360v251h-360Z"/><g><g class="mark-line role-mark layer_0_marks" role="graphics-object" aria-roledescription="line mark container"><path aria-label="step: 0; y: 24.5939031324; name: marigold_clone_200ep_100trn_1000_expert_runs; lineKey: 200 Epochs Avg Expert Returns" role="graphics-symbol" aria-roledescription="line mark" d="M0,22.61550522963494L9,22.61550522963494L18,22.61550522963494L27,22.61550522963494L36,22.61550522963494L45,22.61550522963494L54,22.61550522963494L62.99999999999999,22.61550522963494L72,22.61550522963494L81,22.61550522963494L90,22.61550522963494L99.00000000000001,22.61550522963494L108,22.61550522963494L117,22.61550522963494L125.99999999999999,22.61550522963494L135,22.61550522963494L144,22.61550522963494L153,22.61550522963494L162,22.61550522963494L171,22.61550522963494L180,22.61550522963494L189,22.61550522963494L198.00000000000003,22.61550522963494L206.99999999999997,22.61550522963494L216,22.61550522963494L225,22.61550522963494L234,22.61550522963494L243.00000000000003,22.61550522963494L251.99999999999997,22.61550522963494L261,22.61550522963494L270,22.61550522963494L279,22.61550522963494L288,22.61550522963494L297,22.61550522963494L306,22.61550522963494L315,22.61550522963494L324,22.61550522963494L333,22.61550522963494L342,22.61550522963494L351,22.61550522963494" stroke="rgb(237, 183, 50)" stroke-width="2" stroke-dasharray="4,2"/></g></g><path class="foreground" aria-hidden="true" d="" display="none"/></g><g transform="translate(0,0)"><path class="background" aria-hidden="true" d="M0,0h360v251h-360Z"/><g><g class="mark-line role-mark layer_0_marks" role="graphics-object" aria-roledescription="line mark container"><path aria-label="step: 0; y: 13.9343030559; name: marigold_clone_50ep_100trn_1000_expert_runs; lineKey: 50 Epochs Avg Clone Returns" role="graphics-symbol" aria-roledescription="line mark" d="M0,67.20816554965393L9,36.544897277853366L18,20.37189954284578L27,22.617888715911533L36,19.601007152149116L45,26.319707875640006L54,20.720140290791782L62.99999999999999,24.532473313384337L72,22.750639229968055L81,21.838979356977408" stroke="rgb(237, 183, 50)" stroke-width="2" stroke-dasharray="2,1"/></g></g><path class="foreground" aria-hidden="true" d="" display="none"/></g><g transform="translate(0,0)"><path class="background" aria-hidden="true" d="M0,0h360v251h-360Z"/><g><g class="mark-line role-mark layer_0_marks" role="graphics-object" aria-roledescription="line mark container"><path aria-label="step: 0; y: 23.9763987999; name: marigold_clone_50ep_100trn_1000_expert_runs; lineKey: 50 Epochs Avg Expert Returns" role="graphics-symbol" aria-roledescription="line mark" d="M0,25.19873168717966L9,25.19873168717966L18,25.19873168717966L27,25.19873168717966L36,25.19873168717966L45,25.19873168717966L54,25.19873168717966L62.99999999999999,25.19873168717966L72,25.19873168717966L81,25.19873168717966" stroke="rgb(237, 183, 50)" stroke-width="2" stroke-dasharray="1,1"/></g></g><path class="foreground" aria-hidden="true" d="" display="none"/></g></g><g class="mark-group role-legend" role="graphics-symbol" aria-roledescription="legend" aria-label="Symbol legend titled 'name' for stroke color with 6 values: marigold_clone_200ep_100trn_1000_expert_runs, marigold_clone_200ep_10trn_1000_expert_runs, marigold_clone_200ep_25trn_1000_expert_runs, marigold_clone_200ep_50trn_1000_expert_runs, marigold_clone_200ep_75trn_1000_expert_runs, marigold_clone_50ep_100trn_1000_expert_runs"><g transform="translate(378,0)"><path class="background" aria-hidden="true" d="M0,0h173v92h-173Z" pointer-events="none"/><g><g class="mark-group role-legend-entry"><g transform="translate(0,16)"><path class="background" aria-hidden="true" d="M0,0h0v0h0Z" pointer-events="none"/><g><g class="mark-group role-scope" role="graphics-object" aria-roledescription="group mark container"><g transform="translate(0,0)"><path class="background" aria-hidden="true" d="M0,0h172.2255859375v11h-172.2255859375Z" pointer-events="none" opacity="1"/><g><g class="mark-symbol role-legend-symbol" pointer-events="none"><path transform="translate(6,6)" d="M-5,0L5,0" stroke="rgb(237, 183, 50)" stroke-width="1.5" opacity="1"/></g><g class="mark-text role-legend-label" pointer-events="none"><text text-anchor="start" transform="translate(16,9)" font-family="sans-serif" font-size="10px" fill="#000" opacity="1">marigold_clone_200ep_100trn_1…</text></g></g><path class="foreground" aria-hidden="true" d="" pointer-events="none" display="none"/></g><g transform="translate(0,13)"><path class="background" aria-hidden="true" d="M0,0h172.2255859375v11h-172.2255859375Z" pointer-events="none" opacity="1"/><g><g class="mark-symbol role-legend-symbol" pointer-events="none"><path transform="translate(6,6)" d="M-5,0L5,0" stroke="rgb(160, 199, 92)" stroke-width="1.5" opacity="1"/></g><g class="mark-text role-legend-label" pointer-events="none"><text text-anchor="start" transform="translate(16,9)" font-family="sans-serif" font-size="10px" fill="#000" opacity="1">marigold_clone_200ep_10trn_10…</text></g></g><path class="foreground" aria-hidden="true" d="" pointer-events="none" display="none"/></g><g transform="translate(0,26)"><path class="background" aria-hidden="true" d="M0,0h172.2255859375v11h-172.2255859375Z" pointer-events="none" opacity="1"/><g><g class="mark-symbol role-legend-symbol" pointer-events="none"><path transform="translate(6,6)" d="M-5,0L5,0" stroke="rgb(240, 184, 153)" stroke-width="1.5" opacity="1"/></g><g class="mark-text role-legend-label" pointer-events="none"><text text-anchor="start" transform="translate(16,9)" font-family="sans-serif" font-size="10px" fill="#000" opacity="1">marigold_clone_200ep_25trn_10…</text></g></g><path class="foreground" aria-hidden="true" d="" pointer-events="none" display="none"/></g><g transform="translate(0,39)"><path class="background" aria-hidden="true" d="M0,0h172.2255859375v11h-172.2255859375Z" pointer-events="none" opacity="1"/><g><g class="mark-symbol role-legend-symbol" pointer-events="none"><path transform="translate(6,6)" d="M-5,0L5,0" stroke="rgb(34, 148, 135)" stroke-width="1.5" opacity="1"/></g><g class="mark-text role-legend-label" pointer-events="none"><text text-anchor="start" transform="translate(16,9)" font-family="sans-serif" font-size="10px" fill="#000" opacity="1">marigold_clone_200ep_50trn_10…</text></g></g><path class="foreground" aria-hidden="true" d="" pointer-events="none" display="none"/></g><g transform="translate(0,52)"><path class="background" aria-hidden="true" d="M0,0h172.2255859375v11h-172.2255859375Z" pointer-events="none" opacity="1"/><g><g class="mark-symbol role-legend-symbol" pointer-events="none"><path transform="translate(6,6)" d="M-5,0L5,0" stroke="rgb(91, 197, 219)" stroke-width="1.5" opacity="1"/></g><g class="mark-text role-legend-label" pointer-events="none"><text text-anchor="start" transform="translate(16,9)" font-family="sans-serif" font-size="10px" fill="#000" opacity="1">marigold_clone_200ep_75trn_10…</text></g></g><path class="foreground" aria-hidden="true" d="" pointer-events="none" display="none"/></g><g transform="translate(0,65)"><path class="background" aria-hidden="true" d="M0,0h172.2255859375v11h-172.2255859375Z" pointer-events="none" opacity="1"/><g><g class="mark-symbol role-legend-symbol" pointer-events="none"><path transform="translate(6,6)" d="M-5,0L5,0" stroke="rgb(237, 183, 50)" stroke-width="1.5" opacity="1"/></g><g class="mark-text role-legend-label" pointer-events="none"><text text-anchor="start" transform="translate(16,9)" font-family="sans-serif" font-size="10px" fill="#000" opacity="1">marigold_clone_50ep_100trn_10…</text></g></g><path class="foreground" aria-hidden="true" d="" pointer-events="none" display="none"/></g></g></g><path class="foreground" aria-hidden="true" d="" pointer-events="none" display="none"/></g></g><g class="mark-text role-legend-title" pointer-events="none"><text text-anchor="start" transform="translate(0,9)" font-family="sans-serif" font-size="11px" font-weight="bold" fill="#000" opacity="1">name</text></g></g><path class="foreground" aria-hidden="true" d="" pointer-events="none" display="none"/></g></g><g class="mark-group role-legend" role="graphics-symbol" aria-roledescription="legend" aria-label="Symbol legend titled 'lineKey' for strokeDash with 4 values: 200 Epochs Avg Clone Returns, 200 Epochs Avg Expert Returns, 50 Epochs Avg Clone Returns, 50 Epochs Avg Expert Returns"><g transform="translate(378,100)"><path class="background" aria-hidden="true" d="M0,0h159v66h-159Z" pointer-events="none"/><g><g class="mark-group role-legend-entry"><g transform="translate(0,16)"><path class="background" aria-hidden="true" d="M0,0h0v0h0Z" pointer-events="none"/><g><g class="mark-group role-scope" role="graphics-object" aria-roledescription="group mark container"><g transform="translate(0,0)"><path class="background" aria-hidden="true" d="M0,0h158.119140625v11h-158.119140625Z" pointer-events="none" opacity="1"/><g><g class="mark-symbol role-legend-symbol" pointer-events="none"><path transform="translate(6,6)" d="M-5,0L5,0" stroke="#888" stroke-width="1.5" stroke-dasharray="1,0" opacity="1"/></g><g class="mark-text role-legend-label" pointer-events="none"><text text-anchor="start" transform="translate(16,9)" font-family="sans-serif" font-size="10px" fill="#000" opacity="1">200 Epochs Avg Clone Returns</text></g></g><path class="foreground" aria-hidden="true" d="" pointer-events="none" display="none"/></g><g transform="translate(0,13)"><path class="background" aria-hidden="true" d="M0,0h158.119140625v11h-158.119140625Z" pointer-events="none" opacity="1"/><g><g class="mark-symbol role-legend-symbol" pointer-events="none"><path transform="translate(6,6)" d="M-5,0L5,0" stroke="#888" stroke-width="1.5" stroke-dasharray="4,2" opacity="1"/></g><g class="mark-text role-legend-label" pointer-events="none"><text text-anchor="start" transform="translate(16,9)" font-family="sans-serif" font-size="10px" fill="#000" opacity="1">200 Epochs Avg Expert Returns</text></g></g><path class="foreground" aria-hidden="true" d="" pointer-events="none" display="none"/></g><g transform="translate(0,26)"><path class="background" aria-hidden="true" d="M0,0h158.119140625v11h-158.119140625Z" pointer-events="none" opacity="1"/><g><g class="mark-symbol role-legend-symbol" pointer-events="none"><path transform="translate(6,6)" d="M-5,0L5,0" stroke="#888" stroke-width="1.5" stroke-dasharray="2,1" opacity="1"/></g><g class="mark-text role-legend-label" pointer-events="none"><text text-anchor="start" transform="translate(16,9)" font-family="sans-serif" font-size="10px" fill="#000" opacity="1">50 Epochs Avg Clone Returns</text></g></g><path class="foreground" aria-hidden="true" d="" pointer-events="none" display="none"/></g><g transform="translate(0,39)"><path class="background" aria-hidden="true" d="M0,0h158.119140625v11h-158.119140625Z" pointer-events="none" opacity="1"/><g><g class="mark-symbol role-legend-symbol" pointer-events="none"><path transform="translate(6,6)" d="M-5,0L5,0" stroke="#888" stroke-width="1.5" stroke-dasharray="1,1" opacity="1"/></g><g class="mark-text role-legend-label" pointer-events="none"><text text-anchor="start" transform="translate(16,9)" font-family="sans-serif" font-size="10px" fill="#000" opacity="1">50 Epochs Avg Expert Returns</text></g></g><path class="foreground" aria-hidden="true" d="" pointer-events="none" display="none"/></g></g></g><path class="foreground" aria-hidden="true" d="" pointer-events="none" display="none"/></g></g><g class="mark-text role-legend-title" pointer-events="none"><text text-anchor="start" transform="translate(0,9)" font-family="sans-serif" font-size="11px" font-weight="bold" fill="#000" opacity="1">lineKey</text></g></g><path class="foreground" aria-hidden="true" d="" pointer-events="none" display="none"/></g></g><g class="mark-group role-title"><g transform="translate(180,-22)"><path class="background" aria-hidden="true" d="M0,0h0v0h0Z" pointer-events="none"/><g><g class="mark-text role-title-text" role="graphics-symbol" aria-roledescription="title" aria-label="Title text 'Clone Rewards while Training (200 Epochs)'" pointer-events="none"><text text-anchor="middle" transform="translate(0,10)" font-family="sans-serif" font-size="13px" font-weight="bold" fill="#000" opacity="1">Clone Rewards while Training (200 Epochs)</text></g></g><path class="foreground" aria-hidden="true" d="" pointer-events="none" display="none"/></g></g></g><path class="foreground" aria-hidden="true" d="" display="none"/></g></g></g></svg>